
<global>
amp_veltrack=0
ampeg_release=0.45
</global>

<group>
group_label=PP
lpc_hicc1=42
lpc_locc1=0

<region>
hivel=127
key=A#2
loop_end=172884
loop_mode=loop_continuous
loop_start=51744
loop_xfade=16778
lovel=0
lpc=KonIQtl9T8OBO7JCTpdDQRAIAkJIZJvBp8c3wLvpOsDvVeQ/NKAdwBH6UsBiFiu//aJJQO/1OT9Vq6a+MsICv7s1ij7HGgRAf/42v6wvZL+6BYS/SSfYvulIDECGe1K/
lpc_rms=-52.23
offset=711
release_start=198663
release_xfade=7701
sample=Horn_sustain_PP_A#2.opus
tune=+8
</region>

<region>
hivel=127
key=A#3
loop_end=167743
loop_mode=loop_continuous
loop_start=50205
loop_xfade=16279
lovel=0
lpc=vYKHQ6a/IsSTVctDOUBKwWkJi0L/OJ/CZsVWQFjhWsE7R9rAHK7zwJYQmEGJGNBBDADGwHZKn8Fw/QvBhKwiQapDCEChJlvB8O8IQTk8Y0H4PyI98fSKwTebgkBvXz9A
lpc_rms=-41.37
release_start=189673
release_xfade=7352
sample=Horn_sustain_PP_A#3.opus
tune=-5
</region>

<region>
hivel=127
key=A#4
loop_end=165220
loop_mode=loop_continuous
loop_start=49450
loop_xfade=16034
lovel=0
lpc=tCQgRCXlwsTZ2H5E+GF4QZp76UISeYfDOCV4wFz9DEIcdAJC7Nhpwn6gA0FaLyxC2f5hQd8be8Hm+WLBqil+QbzbjkBa4rLAcwJMwoZDEkL3aahBHICgQX1woMLu4EZC
lpc_rms=-33.53
release_start=188202
release_xfade=7295
sample=Horn_sustain_PP_A#4.opus
tune=-8
</region>

<region>
hivel=127
key=A2
loop_end=175970
loop_mode=loop_continuous
loop_start=52668
loop_xfade=17077
lovel=0
lpc=ZeEVQ6gIm8NkteBCo2sUQjZ+hELze7nBSEuYwZMCvcElcw+/Ki1eQJQj30AawHG/UzMKQGwu+D93LYE9f526vWrlacBlZoQ/87n3v+BO8D9RJrk/EB7FPcucIsCkyqo/
lpc_rms=-49.02
offset=6200
release_start=187146
release_xfade=7254
sample=Horn_sustain_PP_A2.opus
tune=+2
</region>

<region>
hivel=127
key=A3
loop_end=165289
loop_mode=loop_continuous
loop_start=49471
loop_xfade=16041
lovel=0
lpc=DyyiQy2dScTPmBZEs/QOw//82kLuPgDDgc04Qrh7J0G1rLY/n+c2wrNGzUB8QDFCHZEVwF8b3UDnUqDBW/f0wcGbL0HKSPNBinOFwT59e8GR9vO+KI8TQkbFscFOXNE/
lpc_rms=-38.12
release_start=186530
release_xfade=7230
sample=Horn_sustain_PP_A3.opus
tune=+3
</region>

<region>
hivel=127
key=A4
loop_end=167341
loop_mode=loop_continuous
loop_start=50085
loop_xfade=16240
lovel=0
lpc=nUmBQ0MAN8Q/Ay9EVqeCw3Uv+0KgqAHDmXo4QvhCoMFLuh2+OdxeQQjsgkHIDUbBQL8HwTyF7EB8KxXBpyJmwI/ME0LgC5HBqcsRwkCkH0LQ2A7BadvyQOnMvsHQtHZB
lpc_rms=-37.43
release_start=180148
release_xfade=6983
sample=Horn_sustain_PP_A4.opus
tune=-3
</region>

<region>
hivel=127
key=B2
loop_end=172313
loop_mode=loop_continuous
loop_start=51573
loop_xfade=16722
lovel=0
lpc=P90HQ/cvicN/4thCrFrFQbDmM0LVqdzBgsFJwXuq4cBzCLZAL2sfQC4Joj4UeDbA8LsdQDC+7j9DjhlAAPP8vvke2r+UcAA/iCgRwDW4fcA2lwi/esw7QAFM0D839Ru+
lpc_rms=-49.77
offset=598
release_start=197963
release_xfade=7673
sample=Horn_sustain_PP_B2.opus
tune=+12
</region>

<region>
hivel=127
key=B3
loop_end=168252
loop_mode=loop_continuous
loop_start=50358
loop_xfade=16328
lovel=0
lpc=zQx9Q6ewEsR6iqpDQuIEwoch5kIN2XjCvrQzwYHdcsF/kyrBAm8ovxZJDr+uFFRBYD7tQK05eMELX+W/lvEoQe/Pf0Dn22/AS8kTP+SmPUBTBFHBcnKgvpbqHUGqyxzA
lpc_rms=-42.22
release_start=184962
release_xfade=7170
sample=Horn_sustain_PP_B3.opus
tune=+15
</region>

<region>
hivel=127
key=B4
loop_end=174914
loop_mode=loop_continuous
loop_start=52351
loop_xfade=16975
lovel=0
lpc=qQKtQ6I8aMRllT5EYIj4wh4kjEL0ix3DZqcxwT1NRkGT3zBCbko+PwCx1r8At9W+ZYQbwXXdKMB7g/I/VeuJQaDWG8EnHITB4M2GQNuSHkHv7NlAmNTpQeualcL1hyNC
lpc_rms=-36.89
release_start=186414
release_xfade=7226
sample=Horn_sustain_PP_B4.opus
tune=-27
</region>

<region>
hivel=127
key=C#3
loop_end=174197
loop_mode=loop_continuous
loop_start=52137
loop_xfade=16905
lovel=0
lpc=gHt3Q5EzFMTQrKtD/NUIQiHKg0LobrXCtYfJwfTWmD9O6oBBPjivPzzXjkCjenDAVKArvrki6MCoDwE/UIyJQGnRIUGS1pm/UbKcwBuNKsG7BYo/xYq+QJojnEC5UHXA
lpc_rms=-42.75
offset=189
release_start=194782
release_xfade=7550
sample=Horn_sustain_PP_C#3.opus
tune=+7
</region>

<region>
hivel=127
key=C#4
loop_end=164948
loop_mode=loop_continuous
loop_start=49369
loop_xfade=16008
lovel=0
lpc=mvnnQzf3m8Rp83lEYyAnw+wa0UL6TFjDVY4cQnw/dkAxhadBR/GNQScx6z87mhDCIYhbQbR9M8CGpyTA3HYEwMRa40FFtkVAK8Eywod8nkFs0JdBtuxJQdXLisJsvyVC
lpc_rms=-34.62
offset=56
release_start=180727
release_xfade=7005
sample=Horn_sustain_PP_C#4.opus
tune=-9
</region>

<region>
hivel=127
key=C#5
loop_end=164412
loop_mode=loop_continuous
loop_start=49208
loop_xfade=15956
lovel=0
lpc=EyG6Q+qehMTQTYREbDuqw3wqQUF6sOvCE4adQvmBg0GMKAJAkzkawNf3HsEZfuDBlHS2QZnBWkIXcQTCLmA8wujYrEFR9LFBW+CrQOPjo8HjhI/BH5zLQmX5CMM+9YNC
lpc_rms=-35.04
release_start=200400
release_xfade=7768
sample=Horn_sustain_PP_C#5.opus
tune=-30
</region>

<region>
hivel=127
key=C3
loop_end=173984
loop_mode=loop_continuous
loop_start=52073
loop_xfade=16885
lovel=0
lpc=k0EGQ11jk8Oq5glDN4ndQXIxKEJI2wzCdfwKwbzzFcEHxmpAMJHZviVeDUATjOi+cZkDQNcySL4fQcm/aAGuP2+T/T8jANK8ef0OwAGQgb4/Q5Q/cbmVP+LY48AyJKpA
lpc_rms=-49.25
offset=946
release_start=200489
release_xfade=7771
sample=Horn_sustain_PP_C3.opus
tune=+2
</region>

<region>
hikey=C4
hivel=127
lokey=C4
loop_end=174833
loop_mode=loop_continuous
loop_start=52327
loop_xfade=16967
lovel=0
lpc=DG91Qzqo/8OIclZDc9kSQqEAp0LFg0vCGsCcwGNSmsDKcNtA49uGwcoMHsF3/J1AOS8kQceQ9MBykR3BODafQFaTMEGX3wNBJ01cQGT6YzxbkWHB/bTsv/XLSMGBm3pB
lpc_rms=-44.45
release_start=200609
release_xfade=7776
sample=Horn_sustain_PP_C4.opus
tune=+1
</region>

<region>
hivel=127
key=C5
loop_end=171788
loop_mode=loop_continuous
loop_start=51416
loop_xfade=16671
lovel=0
lpc=+ARGQ8i5A8Tt/uVDpDzvwq+AJ0K5xsTCCophQsfKZsBPdQPBgZMqQZyLBcG9Vfe/D3a5wEI/gUGc4tVAmKRkwV0oT7/Y2QRB8D2XwY+caEHPv+pA1zO7QauyhMKe6RdC
lpc_rms=-41.21
release_start=197759
release_xfade=7666
sample=Horn_sustain_PP_C5.opus
tune=-25
</region>

<region>
hivel=127
key=D#3
loop_end=172799
loop_mode=loop_continuous
loop_start=51718
loop_xfade=16770
lovel=0
lpc=T5sgQ+UAmcPO0rdCLny8Qe4hgELsEkbB8ipIwDd0P8FOCKK/wVrGwIcwIsB3DgFAFWdjQM3avD1fTcLATbKSwMtyYkCAc/NA482GQNFaHsDcfaHALDUywM0aj0D9uUy/
lpc_rms=-49.20
offset=728
release_start=190390
release_xfade=7380
sample=Horn_sustain_PP_D#3.opus
tune=+3
</region>

<region>
hivel=127
key=D#4
loop_end=172683
loop_mode=loop_continuous
loop_start=51684
loop_xfade=16758
lovel=0
lpc=MAd4QxV0DcSxNJxD5XFdQa0sfkKTH43CPZgrQFbobkBfxR5A8iMqwWs/+MDLPBPA1+ibQFNKrkClSnPAzfbnQHqCBUFy76dApoyrwW0Oq8CtiaFA4LnNQdoJHcIL+ZpB
lpc_rms=-42.85
offset=516
release_start=188901
release_xfade=7322
sample=Horn_sustain_PP_D#4.opus
tune=-11
</region>

<region>
hivel=127
key=D#5
loop_end=162178
loop_mode=loop_continuous
loop_start=48540
loop_xfade=15739
lovel=0
lpc=gOrQQ4AuhsR/5XREr9K7w7g6l0NLjdfDdYk6QxD7GULQvUpCPewIw277mEJzmZjAjgtqQROXCcIDR59Bz8IMQTIMKUI3ZLTCkliGwQVCCkPYXcrCkqvrQvAvOMOeatZC
lpc_rms=-31.19
release_start=178108
release_xfade=6904
sample=Horn_sustain_PP_D#5.opus
tune=-21
</region>

<region>
hivel=127
key=D3
loop_end=174607
loop_mode=loop_continuous
loop_start=52259
loop_xfade=16945
lovel=0
lpc=M38AQ6rckcPcQBpDb6FDQf0aKEKvVQnCsdoIwQd3w8DlbgpA637dwE8yDkCeteJAWqzyQHWlGsBIuNfAEdZ7wIBlUj/JsIpAZMZNQCDzRT9hrWPAhr3BvTsRs8DgV6VA
lpc_rms=-48.75
release_start=191915
release_xfade=7439
sample=Horn_sustain_PP_D3.opus
tune=-5
</region>

<region>
hivel=127
key=D4
loop_end=172436
loop_mode=loop_continuous
loop_start=51610
loop_xfade=16734
lovel=0
lpc=jSsrQwg/ysMER3NDH8egvcChSkI89GfCIPxNwcfjvD4u0HVBnQxPQA5ApcDIgmPB7VV8QIfDUEGrbrO9HioAwW9B1j9UeZRAubvDv5ShAsFP4ik/zdt+QCj7mEB/DmXA
lpc_rms=-45.43
offset=5
release_start=182241
release_xfade=7064
sample=Horn_sustain_PP_D4.opus
tune=-14
</region>

<region>
hivel=127
key=D5
loop_end=171748
loop_mode=loop_continuous
loop_start=51404
loop_xfade=16668
lovel=0
lpc=NGuUQ4LmYcR+VoBExGHiw2qoEkLQ7qTCk2cfQyx3q8J8lHbBCOMeQtUaOkAQOODAEowmwSYFcsEjpxJCoudxQGOyhsIO3ptC42iEwBRSP8JCC+nApFLeQl8gBcP5gmpC
lpc_rms=-35.17
release_start=197997
release_xfade=7675
sample=Horn_sustain_PP_D5.opus
tune=-26
</region>

<region>
hivel=127
key=E3
loop_end=164731
loop_mode=loop_continuous
loop_start=49304
loop_xfade=15987
lovel=0
lpc=bOw2Qz+fysOAvUNDxIQAQWJRpUIISd/BmIxlwTI2tcE3ZOvAUSJXwQoB8kA5ypBBZakBQd8G4cB2uCzBJyAbvyBLrkA+vJk/qLbLQIz7LMCdA6vA6XM4QK2CxMAMDJ1A
lpc_rms=-46.07
offset=1544
release_start=179305
release_xfade=6950
sample=Horn_sustain_PP_E3.opus
tune=+11
</region>

<region>
hivel=127
key=E4
loop_end=168485
loop_mode=loop_continuous
loop_start=50427
loop_xfade=16351
lovel=0
lpc=TxZ7Q5GoD8QibZpDB+38QRqWjEIcLpbCzeItwc3J28DkM19AXzoGwWE7G0A6tIVAV8UzQQnClkBzFePAPv8hwR5egkAR6nRAB7xHv17xuz+fz5S/qINUQBgFmMFKR21B
lpc_rms=-43.07
offset=188
release_start=190557
release_xfade=7386
sample=Horn_sustain_PP_E4.opus
tune=-1
</region>

<region>
hivel=127
key=E5
loop_end=158840
loop_mode=loop_continuous
loop_start=47540
loop_xfade=15415
lovel=0
lpc=Sc9FQ3e0+8P+LwpERqK6wyvmgENJAl3DtIAlQxsUr8J06ZFCam+mwqVpiUI8uwrCPRMDQXzTNUEvbIXBb/NjQPGV40ELe4PA7MUHwilONUKvC4DCe1S4QkeGpMJAWipC
lpc_rms=-34.70
offset=135
release_start=185442
release_xfade=7188
sample=Horn_sustain_PP_E5.opus
tune=-31
</region>

<region>
hivel=127
key=F#2
loop_end=175970
loop_mode=loop_continuous
loop_start=52668
loop_xfade=17077
lovel=0
lpc=3viaQnlz+8IjQqBBAaqsQLU69UEmJ0RAEcQYv6nMBsEbrmDAklTfv886uz/p77I/zYkeQCoDIj8jLBg/rBWUv3hVDb8X996/ZoOnvvim074muf69NnakPk90tj/T+zG+
lpc_rms=-57.08
offset=9516
release_start=189996
release_xfade=7365
sample=Horn_sustain_PP_F#2.opus
tune=+8
</region>

<region>
hivel=127
key=F#3
loop_end=172513
loop_mode=loop_continuous
loop_start=51633
loop_xfade=16742
lovel=0
lpc=fNBRQ+fx5MPSi0RDngdCQj+mrkJW5ijCZ2j1wSNT68EQn5BArpmlQEijkUDqly9AmTmvP51gA0DthII/7bEXQI8rJsD8ahBAI++4wOBfw8D+arg/9p0XQKNeBUH2P6XA
lpc_rms=-45.51
offset=2491
release_start=195306
release_xfade=7570
sample=Horn_sustain_PP_F#3.opus
tune=+4
</region>

<region>
hivel=127
key=F#4
loop_end=174228
loop_mode=loop_continuous
loop_start=52146
loop_xfade=16908
lovel=0
lpc=Ij+VQ9RUN8SsBOVDnbBbQYmAs0I7o8XCqF/5wcMd+cH3Dl9AK92nwC7yBEJ8eCpCnyn7QPrFJsLu6Q3C37SmP1huBEIVJ25BIHuPwSYEicDNczxB/Y9FQfJsQMKBBudB
lpc_rms=-40.40
offset=95
release_start=193854
release_xfade=7514
sample=Horn_sustain_PP_F#4.opus
tune=-8
</region>

<region>
hikey=F2
hivel=127
lokey=F1
loop_end=175970
loop_mode=loop_continuous
loop_start=52668
loop_xfade=17077
lovel=0
lpc=6KDKQucXUMMX9aJC66yOQZuGH0JKl2fB0iQawdATRsGtS0rAU7AwPw590T/soZFAy3eQQMmAJT9RN6G+ATjnv6BvWMBid72/X/KGPx0R9b3V+ks/T32oP5Ord7/ziO8+
lpc_rms=-52.30
offset=9493
pitch_keycenter=F2
release_start=194966
release_xfade=7557
sample=Horn_sustain_PP_F2.opus
tune=+7
</region>

<region>
hivel=127
key=F3
loop_end=171474
loop_mode=loop_continuous
loop_start=51322
loop_xfade=16641
lovel=0
lpc=nLVZQ19Y98O+FHRDwTwUQlzsrkJcc4LCe8HFwW3tfsHgqihBLY+9PzqOzz/io42/YR2tP++6ecA7MN8/sxiRv6gdn0B4ZKbAsSVCQQHqM0DJrsLAWXTGwOg2HsGzdzZB
lpc_rms=-44.52
offset=339
release_start=197989
release_xfade=7674
sample=Horn_sustain_PP_F3.opus
</region>

<region>
hivel=127
key=F4
loop_end=168270
loop_mode=loop_continuous
loop_start=50363
loop_xfade=16330
lovel=0
lpc=WXmtQwWTUsSZtPRDOGQfQsKoBUOHX/nCYLcwwgqSN8L7xQ1BJpmmQR49P0ECJ4ZBV0+oQSNpPcDDU7zBcUz4wSPmIsFyPrhBEY/MQSSzSkGFa9bA/4byPyQRc8Ju3SVC
lpc_rms=-39.54
release_start=193912
release_xfade=7516
sample=Horn_sustain_PP_F4.opus
tune=-8
</region>

<region>
hikey=A#5
hivel=127
lokey=F5
loop_end=158006
loop_mode=loop_continuous
loop_start=47291
loop_xfade=15334
lovel=0
lpc=1Y8sQwex0cPj8d5DqRaYw9ZEZEPt9SfD6E3VQpmAfsJu8MhBKe6UQFEoXEHLOTLCASF5QlFuzsHrazdBS9DmwVLX80AqEbJBYzMFQS2OhEB9MrTBEhJEwC9BBkHIGHFB
lpc_rms=-32.64
offset=656
pitch_keycenter=F5
release_start=172982
release_xfade=6705
sample=Horn_sustain_PP_F5.opus
tune=-47
</region>

<region>
hivel=127
key=G#2
loop_end=175970
loop_mode=loop_continuous
loop_start=52668
loop_xfade=17077
lovel=0
lpc=DXu7QhshPsMeqphCIKhSQbrfBkIiQ5HB32atwCKKocBNRFxAEaeHv+xm/r/dGAHAAt4GQJiRQkDe9xFA6sQCwCSoCMDuU3W/oSYYQE33q7/+0HG+oqZSv80bkT/WP/0+
lpc_rms=-52.89
offset=6491
release_start=186590
release_xfade=7233
sample=Horn_sustain_PP_G#2.opus
tune=+11
</region>

<region>
hivel=127
key=G#3
loop_end=170114
loop_mode=loop_continuous
loop_start=50915
loop_xfade=16509
lovel=0
lpc=ObM9QzbmAMRmZ9VD+ryWwlz+8UEFUMDCRay8QeabuEEhTZ9BwIWVwY715sFnUwZBan6sQXJV1UCDwEfB7hxxwevFhL93eoVB/nKkQASnJECyHOnADgkywYh1nUDjF0JA
lpc_rms=-42.27
offset=386
release_start=183372
release_xfade=7108
sample=Horn_sustain_PP_G#3.opus
tune=-5
</region>

<region>
hivel=127
key=G#4
loop_end=171797
loop_mode=loop_continuous
loop_start=51419
loop_xfade=16672
lovel=0
lpc=YZt2Q8MOGsSQMNJDMxMWwmSBoUKIBYzC9ViKwZzuDsLEJ5u8czt1QUzIpUEBfDdBI/UfwQ2MpD8dKYLANYYkwXaQMsFjrKBAUmW+QVbTM0B6JFnB7J2fQW7FRcIj4+9B
lpc_rms=-41.44
release_start=189818
release_xfade=7358
sample=Horn_sustain_PP_G#4.opus
tune=-6
</region>

<region>
hivel=127
key=G2
loop_end=175970
loop_mode=loop_continuous
loop_start=52668
loop_xfade=17077
lovel=0
lpc=nB4FQ09igsPsUKtCy+GiQfEHYUIHNTbBgj+0wFHDc8H1+qbAw85KwAcqmD+8fgc//84yQIAVfEAX9f0/Oho4wAdZmb8t4j8/rSGLv0M9J7+9jYg/U4WuvvzhvL/eqtg/
lpc_rms=-50.38
offset=9820
release_start=189610
release_xfade=7350
sample=Horn_sustain_PP_G2.opus
tune=+16
</region>

<region>
hivel=127
key=G3
loop_end=173310
loop_mode=loop_continuous
loop_start=51871
loop_xfade=16819
lovel=0
lpc=Lt1TQ/3D6sMOp1RDJcMqQsUAq0I50TbC2qrHwWKdqsEKUWrAsoitP+gQgUC9HwNBEEFSPZQjiEAdqcXAXrJbwDxh6j9lU7ZAuvGMQHHajMBSsXbABVBpwDUuCUBLiBdA
lpc_rms=-45.01
offset=34
release_start=183405
release_xfade=7109
sample=Horn_sustain_PP_G3.opus
tune=+2
</region>

<region>
hivel=127
key=G4
loop_end=172579
loop_mode=loop_continuous
loop_start=51653
loop_xfade=16748
lovel=0
lpc=OoNeQ8/PDcT2athD2vtywqWOoEErL5DCZwEUQkAqOcGqbwDBOZUcwN4+FEEnUHZAC5AYPqRf40BuiQPAOl4BwUACaMDRuFxAvy/1wCrPFkFH1S1BfWa7QFo+K8KlFdZB
lpc_rms=-41.77
release_start=181762
release_xfade=7045
sample=Horn_sustain_PP_G4.opus
tune=-5
</region>
</group>

<group>
group_label=MF
lpc_hicc1=84
lpc_locc1=43

<region>
hivel=127
key=A#2
loop_end=169234
loop_mode=loop_continuous
loop_start=50651
loop_xfade=16424
lovel=0
lpc=JoXJQsBercN4jPlDMkfEw+OVS0M6+ebCHFKzQnySX8JJZJNBlFk/QQrc68F0U79BR2gcwZCyfEEAbNzB/ufHQTCOoMFMcs1Br7fhwcoJgEH2nq+/89BWwP+BhT4TsIY/
lpc_rms=-38.35
offset=272
release_start=180736
release_xfade=7006
sample=Horn_sustain_MF_A#2.opus
tune=-11
</region>

<region>
hivel=127
key=A#3
loop_end=167174
loop_mode=loop_continuous
loop_start=50035
loop_xfade=16224
lovel=0
lpc=ykrDQlXZu8N9wR1EVPkaxM2G0EMNbHLD7+8oQ0v9BMOrG6FCqIGcwf3eD8Lh76NCO8a8wlehkULa0kXCUKIgQlc2DsLiVapBhO8pvx3cUMCa0prBTkYpQhH5D8JGcjxB
lpc_rms=-33.21
offset=240
release_start=180098
release_xfade=6981
sample=Horn_sustain_MF_A#3.opus
tune=-6
</region>

<region>
hivel=127
key=A#4
loop_end=164017
loop_mode=loop_continuous
loop_start=49090
loop_xfade=15917
lovel=0
lpc=fJ44Q2YDLMTOdoxEnxeExDb3KESKEsnDHYKUQ82dU8M7XupC2VRowowCUEEomEpCRXu7wlR0lkJmsQjC9vANQkpwiMLmtoVC2vCWwRcmZ0HPAczCdhUsQ9Q2/MIq4RZC
lpc_rms=-28.73
release_start=181540
release_xfade=7037
sample=Horn_sustain_MF_A#4.opus
tune=-14
</region>

<region>
hivel=127
key=A2
loop_end=160650
loop_mode=loop_continuous
loop_start=48082
loop_xfade=15591
lovel=0
lpc=YbhPQoNLQ8OUZqlDxC66w127l0Oim0zD8kL6QsWMnMI1Al5CJs0awgS6jkGgzjBAJjtIwXpqPUGQMyDBYigyQQd4TMGli3JBAjGTwcgLikF510TBmCsGQYMfn8CP2do/
lpc_rms=-39.27
release_start=168641
release_xfade=6537
sample=Horn_sustain_MF_A2.opus
tune=-8
</region>

<region>
hivel=127
key=A3
loop_end=167876
loop_mode=loop_continuous
loop_start=50245
loop_xfade=16292
lovel=0
lpc=befXQiU2xMPMqxdEzXsJxCokwUPLVY/DaLJeQzUjGsOuOLNCurUGwqAtUsDtTFlB25YvwXn3r0HeYUrC0K+OQnqQiMJKu0BCS6q3wQxEF0DjdutAyBQCwf9hoEBN2pm/
lpc_rms=-34.31
release_start=184342
release_xfade=7145
sample=Horn_sustain_MF_A3.opus
tune=-10
</region>

<region>
hivel=127
key=A4
loop_end=169362
loop_mode=loop_continuous
loop_start=50690
loop_xfade=16436
lovel=0
lpc=MLfiQozV5MPjc1VEikp8xBW9XkT9pyjEj8f4QweEv8PxB5VDP2xLw9TetUKlBO1AA8d6wi1PuUJVhenCZCz6QqlX4cLkortC21mjwmLDhkIp3y/Co6LrQSbducGVkx1B
lpc_rms=-28.86
release_start=183873
release_xfade=7127
sample=Horn_sustain_MF_A4.opus
tune=-11
</region>

<region>
hivel=127
key=B2
loop_end=170128
loop_mode=loop_continuous
loop_start=50919
loop_xfade=16510
lovel=0
lpc=SLFnQtEjUcNCD7BDKL/Bw+QJp0PTVH3DbZYwQ+PP4cLVZ39CgsbswQt83UBDIhRBsEWJwQH3mkG1daLBi9uTQfQtbcEKIZdBhp7nwXDT80EzoKfBSB44QX0vvMDCwOs/
lpc_rms=-38.04
offset=286
release_start=188285
release_xfade=7298
sample=Horn_sustain_MF_B2.opus
tune=-7
</region>

<region>
hivel=127
key=B3
loop_end=172714
loop_mode=loop_continuous
loop_start=51693
loop_xfade=16761
lovel=0
lpc=qHXtQpba18PDeyhET4oVxBYOq0NYjxnDK5ayQktAesKvEqFB5qJAQTwUwsGl78hBcE8Nwd8eLT4zfWHBaWXiQfwFzsGdDBpBn0oSQWJ9u8H3yfZB0h3fwUAmckFevVvA
lpc_rms=-36.04
offset=127
release_start=195339
release_xfade=7572
sample=Horn_sustain_MF_B3.opus
tune=-16
</region>

<region>
hivel=127
key=B4
loop_end=161718
loop_mode=loop_continuous
loop_start=48402
loop_xfade=15694
lovel=0
lpc=QsQvQxkQIcSCPIhEbbmPxKa/W0RtSgrEvDOlQ7dtW8OI+R9DT2u9wmw9A0IqgwxB/VkHwtVOL0KyCDDCGVw+QjmZJMIeBL5BY6sjwWleY0EIdyHCa2CCQp+PcMLFCM9B
lpc_rms=-27.68
release_start=182873
release_xfade=7089
sample=Horn_sustain_MF_B4.opus
tune=-19
</region>

<region>
hivel=127
key=C#3
loop_end=171630
loop_mode=loop_continuous
loop_start=51369
loop_xfade=16656
lovel=0
lpc=0CdsQoVIXMMg9L1DavHSw9UDtEMkN4bD/1Y6QzBI7cLnJIZCkusPwuHhrkHDJTLBG4RJwOcCckHDlJXBrK+gQcY93MECLxVCHHYbwt7X3kGnx0LBcGEMQFvoZr7wsRc/
lpc_rms=-37.55
offset=581
release_start=195247
release_xfade=7568
sample=Horn_sustain_MF_C#3.opus
tune=-3
</region>

<region>
hivel=127
key=C#4
loop_end=164448
loop_mode=loop_continuous
loop_start=49219
loop_xfade=15959
lovel=0
lpc=z6L1QkFC7cOHIVdETlV8xOgCW0QKfBbEewGrQ04yJcO/r01CUDCoQci8EMIVCZVAu2XRQbUR4sEKVKFAxA3RQeTuMcJ6oFhC0d5twlSLU0JxwyzCe2UOQjRwp8H0W69A
lpc_rms=-31.05
offset=471
release_start=182445
release_xfade=7072
sample=Horn_sustain_MF_C#4.opus
tune=-13
</region>

<region>
hivel=127
key=C#5
loop_end=158944
loop_mode=loop_continuous
loop_start=47572
loop_xfade=15425
lovel=0
lpc=kN4hQxY+HMSmZ45EBZGdxIIOXkR4fbzDYXi7QkNER8JRyD9CgcSZQaEjtsIU8qxCH5DUwD04icJzyEtCXQ4vQj12p8J+5FNBataNQgcfa8InKc/BT4KbQiu3Z8LWOZdB
lpc_rms=-30.14
release_start=178373
release_xfade=6914
sample=Horn_sustain_MF_C#5.opus
tune=-5
</region>

<region>
hivel=127
key=C3
loop_end=171864
loop_mode=loop_continuous
loop_start=51439
loop_xfade=16679
lovel=0
lpc=3dSJQieufsNYX9BD4/HJw4zzhUOTwRHDi3ulQm1CSMLxYMpBr/ijwKtn6sBEQfdAhT2mv16BO0DCdT/B4Z+BQdhCVcEP8C1BPTkywd8iKkG9Bg/BLhuaQCTvrT6og4O/
lpc_rms=-39.13
offset=578
release_start=190506
release_xfade=7384
sample=Horn_sustain_MF_C3.opus
tune=-23
</region>

<region>
hikey=C4
hivel=127
lokey=C4
loop_end=173267
loop_mode=loop_continuous
loop_start=51859
loop_xfade=16815
lovel=0
lpc=TiLNQs2Ox8MXTi1EcRU3xLjHCUSynKbDsro0Q9PZxcJpZGhCRhrdwX/mAMEiUydCBztHwsK9C0KztMvBQRy7QSUleMFoFa2+N2iYQSStucEJrB1BhqWhP3ZbJsCtpm4/
lpc_rms=-33.86
offset=97
release_start=177940
release_xfade=6897
sample=Horn_sustain_MF_C4.opus
tune=-3
</region>

<region>
hivel=127
key=C5
loop_end=163887
loop_mode=loop_continuous
loop_start=49051
loop_xfade=15905
lovel=0
lpc=BxBCQ4QXMcTSQo1EZt6JxNeyT0T6cQLE6A2HQ3MPUcMiGYND9HuAwwmyHkOmKvBAzm4Lw/GsEUMoUMXCRl+WQuUWYcJLyJRCCXAJw0RTFEOkmdTCxqLEQrbkqsLEnwFC
lpc_rms=-27.58
release_start=185241
release_xfade=7180
sample=Horn_sustain_MF_C5.opus
tune=-29
</region>

<region>
hivel=127
key=D#3
loop_end=168328
loop_mode=loop_continuous
loop_start=50380
loop_xfade=16336
lovel=0
lpc=MOghQgBCGMNHOItD/xavw6rgs0MLoqPDlbyGQwRsS8ODoQ5DncC6whgeYUIV9d7BaVHYQL6dBkHZ6ZvBNHTWQUcN78HeFvtBiHX3wceby0H9O43BNhMwQZOWq8DZIsY/
lpc_rms=-36.26
offset=457
release_start=181104
release_xfade=7020
sample=Horn_sustain_MF_D#3.opus
tune=-30
</region>

<region>
hivel=127
key=D#4
loop_end=164326
loop_mode=loop_continuous
loop_start=49182
loop_xfade=15947
lovel=0
lpc=ZRzaQtMP1cMFEjREAeEsxL3w10MnPWfDwYEjQy/V8sKhTGZC5LuEwaMeSEGegRLAnJ8OwqfeokLJCs3CRA6lQsHiJcJhk3hBH2+WwGTK6z9PI8zBtp5aQgNKMsKw9FNB
lpc_rms=-33.90
release_start=178783
release_xfade=6930
sample=Horn_sustain_MF_D#4.opus
tune=-34
</region>

<region>
hivel=127
key=D#5
loop_end=155320
loop_mode=loop_continuous
loop_start=46487
loop_xfade=15073
lovel=0
lpc=eP8SQ0hi48NnOBdEEB/tw6slpENfcIXDew4wQ3rmlMJd/5FChOrfwkEemkIarJXB8Wa5QfbuR8HYwOLBIbkKQcSWHUImWrPBZyZbwY/m/UFseKjCKRQgQ4wfE8OAxWBC
lpc_rms=-29.84
release_start=172161
release_xfade=6673
sample=Horn_sustain_MF_D#5.opus
tune=-27
</region>

<region>
hivel=127
key=D3
loop_end=168551
loop_mode=loop_continuous
loop_start=50447
loop_xfade=16357
lovel=0
lpc=vZdHQih6NsMLbJpDR3Cpw03QkEMsi1nDmhYZQ2gw08IGHIZC15PRwbiQKcFCvulBq1zUwYgljEGMznTBB16CQTC6QMHCKN9AT5UawURmkEEBy6jBbk92QT8gAsESAyVA
lpc_rms=-39.62
offset=425
release_start=178874
release_xfade=6934
sample=Horn_sustain_MF_D3.opus
tune=-17
</region>

<region>
hivel=127
key=D4
loop_end=167596
loop_mode=loop_continuous
loop_start=50161
loop_xfade=16265
lovel=0
lpc=QRngQhrlzMNj0hlEq8/rw/8fPENODZPC25/LQjadvsIU2NRBpV+LQTL8FMENi2rAsH4owOIeiUGpBNDBocu9QR32dsE1r15AscBYQaEcksH9aCM/BpSZQe7fq8EvaghB
lpc_rms=-38.15
offset=114
release_start=191925
release_xfade=7439
sample=Horn_sustain_MF_D4.opus
tune=-30
</region>

<region>
hivel=127
key=D5
loop_end=165007
loop_mode=loop_continuous
loop_start=49386
loop_xfade=16013
lovel=0
lpc=WXgVQ8RaBcQWtl1ESGhmxI9DK0QDgsDDv8MgQ6T9TsLAPyFCcxUmwr3dtcA2OEhCdmUGwvDcjz/0OkdBSVuqwbnxkEEYl8BAgO4jwUf5AcHTmNNASGDSQTEmKsI7baxB
lpc_rms=-32.20
release_start=186608
release_xfade=7233
sample=Horn_sustain_MF_D5.opus
tune=-22
</region>

<region>
hivel=127
key=E3
loop_end=160911
loop_mode=loop_continuous
loop_start=48160
loop_xfade=15616
lovel=0
lpc=yZtaQrmuTMOuM7dDgwfcwwhY0kMMBrDDEyGFQ/jiNMMLvNFCXpEwwjVDMD/ETNBBv8ECwtKw0EFrmI/BEesuQWBQGMDPkZzAOdjHQL9ucL8eMs/Aii0nQebdA8HW1jZA
lpc_rms=-35.59
offset=189
release_start=177688
release_xfade=6888
sample=Horn_sustain_MF_E3.opus
tune=+7
</region>

<region>
hivel=127
key=E4
loop_end=167156
loop_mode=loop_continuous
loop_start=50030
loop_xfade=16222
lovel=0
lpc=9LVsQhdgYMMbo8xDcJL7w26a9kPiDNHDlYqeQ5rjYMMkbRtDvSHXwjHkk0LYRSXCSbKnQORnyEHFTDvCRAN1QtbjgcIgD3pCzeBmwiCqPULXIg/CcfLUQV9IgcEN+69A
lpc_rms=-33.46
release_start=187277
release_xfade=7259
sample=Horn_sustain_MF_E4.opus
tune=-18
</region>

<region>
hivel=127
key=E5
loop_end=150835
loop_mode=loop_continuous
loop_start=45145
loop_xfade=14638
lovel=0
lpc=5GeBQzsPHcTDyxVE0wCow/Own0MLgLjDsg+CQ6+clcLZmJbBKh2owJZ8A0Ij9Y/BNjkuQlXB/cFqCLFBnYeXwmcy3UIJgYbCvw07wawijkIaJaHBX2B7QYSUvsJom55C
lpc_rms=-30.70
release_start=169252
release_xfade=6561
sample=Horn_sustain_MF_E5.opus
tune=-25
</region>

<region>
hivel=127
key=F#2
loop_end=167722
loop_mode=loop_continuous
loop_start=50199
loop_xfade=16277
lovel=0
lpc=lvhrQoxRV8OkirFDe7e4wxVVk0OQNU3DZAYCQ5/JlsJhRxVCbi8cwRNzscARhihB+xE6wZS9SkHqDzXBsijZQNSPN8BWETpAxPTGwAY+CEHMZgLBFK7kQAfvoMBo0uE/
lpc_rms=-39.80
offset=560
release_start=185907
release_xfade=7206
sample=Horn_sustain_MF_F#2.opus
tune=+17
</region>

<region>
hivel=127
key=F#3
loop_end=165913
loop_mode=loop_continuous
loop_start=49658
loop_xfade=16101
lovel=0
lpc=NGd5QlVcZcMp4cpDOvD5w6ZZAURNQPLDcTXRQ8HRq8MCN4lDndtSw3BuGkOTVtjCj1OPQg8mAsJuu5HBKBaCQulyrMKFRK5CrSKnwqf3lUI7A2/CIOMoQlvZtMEKdMhA
lpc_rms=-31.59
offset=390
release_start=183069
release_xfade=7096
sample=Horn_sustain_MF_F#3.opus
tune=+4
</region>

<region>
hivel=127
key=F#4
loop_end=167608
loop_mode=loop_continuous
loop_start=50165
loop_xfade=16266
lovel=0
lpc=hrXJQmRUxMNbmDNEVM1SxAQ7NkR6LPrDFZKLQwoD8sLJKPdB+PB9QGewXsE7buFBGBDQwYB52MCyxA5CAwL9wVyOF0EK5yhA5ik6wTAgM0Lt67PCVPPEQjzQbMI6jYBB
lpc_rms=-32.55
release_start=189748
release_xfade=7355
sample=Horn_sustain_MF_F#4.opus
tune=-16
</region>

<region>
hikey=F2
hivel=127
lokey=F1
loop_end=166445
loop_mode=loop_continuous
loop_start=49817
loop_xfade=16153
lovel=0
lpc=sVZ3QhRFWsOsGKdDzqOVw2MTPUPDztfC7JCAQnK/BsJEfkZBQkiwwMXwAkF9xuHAqNLjvrlWA0GIMTjBtw4fQdJQ9MD5jApBiR4HwWplJEC7XOo/MZrCPlWHJMBNoKQ/
lpc_rms=-42.12
offset=1043
pitch_keycenter=F2
release_start=177201
release_xfade=6869
sample=Horn_sustain_MF_F2.opus
tune=-2
</region>

<region>
hivel=127
key=F3
loop_end=158895
loop_mode=loop_continuous
loop_start=47557
loop_xfade=15420
lovel=0
lpc=8xhOQoRAQcPvDa1DORTRw4UAy0Ncza3DCSWHQ+zAPMNE49xCPY40wqIYQT8nkMZBtFQcwu/aQkI/2VHCCZMwQlmuwsGmfKdAdHGtQKfaEcH9GPVAg+IjwPCygr8FgVc/
lpc_rms=-34.60
offset=115
release_start=174502
release_xfade=6764
sample=Horn_sustain_MF_F3.opus
tune=+10
</region>

<region>
hivel=127
key=F4
loop_end=159217
loop_mode=loop_continuous
loop_start=47653
loop_xfade=15451
lovel=0
lpc=Uv+uQj/7p8PvBwxE104FxDwvo0NP8RbD3bmrQlo/qsJ+vqlC0W1/wjZSNUKMbhTCIKqfQRhpn0CdMY7BUMCqQfyjCsIv+mpCgZeVwpLBgkL1Qu/B8eyPwGBBQ0HNf4jA
lpc_rms=-34.85
release_start=183418
release_xfade=7110
sample=Horn_sustain_MF_F4.opus
tune=-20
</region>

<region>
hikey=A#5
hivel=127
lokey=F5
loop_end=152829
loop_mode=loop_continuous
loop_start=45741
loop_xfade=14832
lovel=0
lpc=nNZ1Q+U9CcSgFQJE6eCowwI8oUO0sI7DMDI9Q1EX+8IfwrJCeW7hweYLRMHRjA1C6lRjwfNN1T6FHOBBX5iswVv35MG5tixCadBGQJANO0IF4MfCMcu5QgBeocJHr3RC
lpc_rms=-29.17
offset=628
pitch_keycenter=F5
release_start=172865
release_xfade=6701
sample=Horn_sustain_MF_F5.opus
tune=-38
</region>

<region>
hivel=127
key=G#2
loop_end=165390
loop_mode=loop_continuous
loop_start=49501
loop_xfade=16050
lovel=0
lpc=arNGQo/aMsNaeZVDKFikwy/8j0NwO2LDAOsmQw3c4cKhMoZCOZcIwpfVNUFR7oRAEpwswY4xUUHRZHfB+m2YQetNycFiEQBCXp8Iwhpd9EFg5LzB4VR1QS1y+8AqPh1A
lpc_rms=-38.54
offset=924
release_start=182452
release_xfade=7072
sample=Horn_sustain_MF_G#2.opus
tune=-6
</region>

<region>
hivel=127
key=G#3
loop_end=165562
loop_mode=loop_continuous
loop_start=49553
loop_xfade=16067
lovel=0
lpc=xC4XQtS8AcNDUVxDw4OGwyY0i0M71YLDBM9lQ2K8QMN3QRpDSdXowndYpUI/6FrCK4IUQsuv18ELRZRBaVYuwTq6O0BY4LxA7tg1wZBoQUFYwSDB/7nzQPHDscDogxJA
lpc_rms=-31.49
release_start=185227
release_xfade=7180
sample=Horn_sustain_MF_G#3.opus
tune=-11
</region>

<region>
hivel=127
key=G#4
loop_end=159490
loop_mode=loop_continuous
loop_start=47735
loop_xfade=15478
lovel=0
lpc=YpwLQ4tYCsShzn1Ea+iUxNkMhURL9EzEQ90ORAtSrcNk1SlD7DuMwvQsI0JgttXBqdo5wcCMhEKWdN7ClRn5QsfVx8KRSoxCSXOFwknSkkKF8InCm5JbQmUMCMLwGjZB
lpc_rms=-27.02
offset=5
release_start=179252
release_xfade=6948
sample=Horn_sustain_MF_G#4.opus
tune=-7
</region>

<region>
hivel=127
key=G2
loop_end=149691
loop_mode=loop_continuous
loop_start=44802
loop_xfade=14527
lovel=0
lpc=k9Y1QgjzIcOMCIVDubSMw/0zaENcGirD4CXmQpryjsJS3hpCi7dQwcVPucCeJ2VB7b1EwVPJC0E0TA3BrCsYQZ6UEMFOlxJBTgcLwQiqrkDFcYq/+I+3Psh0CcD5NMs/
lpc_rms=-41.32
offset=920
release_start=155189
release_xfade=6015
sample=Horn_sustain_MF_G2.opus
tune=-33
</region>

<region>
hivel=127
key=G3
loop_end=159717
loop_mode=loop_continuous
loop_start=47803
loop_xfade=15500
lovel=0
lpc=j3knQlYvGsNKpotD9DCxwxb9uUMT8a7DwBiYQ7hJesN0yEZDCHsYw0za30LvlJnCWf40QvfTd8GfFATBZFKeQbYencEGUI1B7KCWwTRHoEES0o/BaPY3Qe2JbsANsFc+
lpc_rms=-33.85
offset=41
release_start=176201
release_xfade=6830
sample=Horn_sustain_MF_G3.opus
tune=-8
</region>

<region>
hivel=127
key=G4
loop_end=162351
loop_mode=loop_continuous
loop_start=48591
loop_xfade=15756
lovel=0
lpc=6HoKQ19CBcSNKmhEpY59xCkBWETaMzfErNUoRGAVEsSBidtDpR+bwzbjVUPiO+zCfx8TQrqCYUHgJJLC10orQ2ZFc8Ozp1tDSvIWw6cy2kJ3wNjCWt/qQtA9qcLeE9RB
lpc_rms=-27.60
release_start=176991
release_xfade=6861
sample=Horn_sustain_MF_G4.opus
tune=-17
</region>
</group>

<group>
group_label=FF
lpc_hicc1=127
lpc_locc1=85

<region>
hivel=127
key=A#2
loop_end=157624
loop_mode=loop_continuous
loop_start=47177
loop_xfade=15297
lovel=0
lpc=VLMsQVga4cEFDwtCOxcAwg6A5kEbbdXBDCfDQQv6sMGzVZ5BA4eMwSt/eEGTF07B23ooQZnUDMF81OZAW96xwP2Hc0Ay/Oa/4d4DPxv3xj7ea4y//fipPwtXc7+rFsk+
lpc_rms=-34.54
offset=332
release_start=165473
release_xfade=6414
sample=Horn_sustain_FF_A#2.opus
tune=+8
</region>

<region>
hivel=127
key=A#3
loop_end=170980
loop_mode=loop_continuous
loop_start=51174
loop_xfade=16593
lovel=0
lpc=MM58QUmaGMLXYzJCx+slwlAbGEITwAfCuU/uQZgA3cGrfM1BFzO1wTlRlEHK81jB0qf9QOBk4b+S7nLAMX4BQRLMMMGlxkBB5eUPwc1a50DXNfXA0JnbQLOchsADPr0/
lpc_rms=-26.04
offset=245
release_start=193418
release_xfade=7497
sample=Horn_sustain_FF_A#3.opus
tune=-15
</region>

<region>
hivel=127
key=A#4
loop_end=160820
loop_mode=loop_continuous
loop_start=48133
loop_xfade=15607
lovel=0
lpc=S/PUQER5RsGNGiRBsZwCwTxq90BjAeXAA6DYQBIOw8BXv6hAu/KWwLMNgUA/iz7AByACQJObxr2sh1+/dcypPjo8G79qNn0/1W5fv1WMZT9JqsS+F2svP1W/or+el1c/
lpc_rms=-24.82
release_start=168938
release_xfade=6548
sample=Horn_sustain_FF_A#4.opus
tune=-22
</region>

<region>
hivel=127
key=A2
loop_end=161140
loop_mode=loop_continuous
loop_start=48229
loop_xfade=15638
lovel=0
lpc=76saQVzBxsG0oftBiKn4wejf6kEj89nBmKvCQdIAqcFvEZBBQa1swS8EPkHJCA/B3BC8QJ7iP8Cgg2E/QomqPsKHYr+lBds/RDATwPh8FkBYZwTAZBnHP2IJSb/wCIY+
lpc_rms=-34.33
offset=378
release_start=170015
release_xfade=6590
sample=Horn_sustain_FF_A2.opus
tune=-7
</region>

<region>
hivel=127
key=A3
loop_end=171829
loop_mode=loop_continuous
loop_start=51428
loop_xfade=16675
lovel=0
lpc=0U4qQUD958H2VB9CDdAqwh1qKkI+xSHCAeIOQp697cEx0LhBdJOLwce0U0Go1BLBFwW3QCv5P8CTlmk/POPGPl/pp79PRTtA5XOHwEYVeUDAFS/AVob0P5MEcr/j/kA+
lpc_rms=-33.04
release_start=187266
release_xfade=7259
sample=Horn_sustain_FF_A3.opus
tune=-8
</region>

<region>
hivel=127
key=A4
loop_end=159051
loop_mode=loop_continuous
loop_start=47604
loop_xfade=15435
lovel=0
lpc=qNLcQHOhQ8ES9jZBu9YiweWkFkFjeQrByMroQCgywcDoSolAnqM0wCN84T/nV1u/EM64vcAfmD9QePu/wgIoQDdUScCwq1FAFMQ+wB5VI0BbBNK/owvLP75SU7/casM+
lpc_rms=-25.00
release_start=165737
release_xfade=6424
sample=Horn_sustain_FF_A4.opus
tune=-19
</region>

<region>
hivel=127
key=B2
loop_end=167907
loop_mode=loop_continuous
loop_start=50254
loop_xfade=16295
lovel=0
lpc=PbmnQCNQK8FEojFBOiIjwZd3FkGIEwPB4nPXQC/krcACyoZA1CU3wNpo4j8FRCW/WYDFvSPgJj+T+ZO/Cq3FP4/0478ToQ5AnaMGwNr+1D9ARYu/6t0rP2mQ0r5uG2o+
lpc_rms=-36.39
offset=1220
release_start=178247
release_xfade=6909
sample=Horn_sustain_FF_B2.opus
tune=-22
</region>

<region>
hivel=127
key=B3
loop_end=165654
loop_mode=loop_continuous
loop_start=49580
loop_xfade=16076
lovel=0
lpc=22cHQeY4mMHr9atBAcKfwbMZlEHEj4jBlV5oQQCvQcHFvB1BNV/owMHVk0AjkNu/mMXBvse00T8YsyzA3GJuQOmoZ8BYoYRAdgSRwESpV0B/Ud+/janhPhu1+Lzghqs+
lpc_rms=-30.78
offset=496
release_start=176863
release_xfade=6856
sample=Horn_sustain_FF_B3.opus
tune=-22
</region>

<region>
hivel=127
key=B4
loop_end=150994
loop_mode=loop_continuous
loop_start=45192
loop_xfade=14653
lovel=0
lpc=sdS0QCT8IMFRNBdBH5gCwfo7+0C2EfHA3X3TQJUcw8DnGaRAshKKwLyVWEC4ShnA8cHFP9Tp8L5pRpQ+/nQqPgZohb8jWfE/g8LhvwU43j9lqMC/okm3P/bunb+jgkY/
lpc_rms=-23.77
release_start=167059
release_xfade=6476
sample=Horn_sustain_FF_B4.opus
tune=-27
</region>

<region>
hivel=127
key=C#3
loop_end=160705
loop_mode=loop_continuous
loop_start=48099
loop_xfade=15596
lovel=0
lpc=zqPVQNJAVsGLa1BBa4U5weETKkE5Dh7BQmkGQczd4sAxoq9AquNmwF38L0Az8ua/mf6aPwt+Dr86OV++lth0P18/h79u4qA/BkvhvwHlzT8BN7u/ZTWBPySS/b4q4Jc+
lpc_rms=-31.53
offset=269
release_start=181030
release_xfade=7017
sample=Horn_sustain_FF_C#3.opus
tune=-15
</region>

<region>
hivel=127
key=C#4
loop_end=162384
loop_mode=loop_continuous
loop_start=48601
loop_xfade=15759
lovel=0
lpc=k+UGQYOyj8GYXJdBzBiNwUALgkHmC2vBZItDQV/0H8GRSPpAkeWowA8FQkAVN4G/ej42v8VhDEA4MCnAapA4QHSkMMD6mS9A8NMLwID6qT89zIK/Fw1pP+Q3Fb/n5RY+
lpc_rms=-26.03
offset=583
release_start=185926
release_xfade=7207
sample=Horn_sustain_FF_C#4.opus
tune=+1
</region>

<region>
hivel=127
key=C#5
loop_end=156268
loop_mode=loop_continuous
loop_start=46771
loop_xfade=15165
lovel=0
lpc=7CeSQA3I9cDDqt1AKYeywCOai0CWqVPAdPktQGaxNMA48lJAJC4wwLvc0D/QCYO/wj94P/kT3b7n0328vx73PpiQU79UvZ8/jPwov0q2uD0PSAc+9rI8vg2psD2E8uo+
lpc_rms=-27.01
release_start=176896
release_xfade=6857
sample=Horn_sustain_FF_C#5.opus
tune=-32
</region>

<region>
hivel=127
key=C3
loop_end=169930
loop_mode=loop_continuous
loop_start=50860
loop_xfade=16491
lovel=0
lpc=ZH/NQNzUXMHFSmpBF1hUwUpuQkG1nC/B8b0UQbn19sCgjcNADDyWwPCzYEC6kA3A36xRP0STRj/XOfy/gB0vQG05TcDoFnRArZdowAJCP0B51hTA/EXQP4pkRb8aowA+
lpc_rms=-36.91
offset=226
release_start=185800
release_xfade=7202
sample=Horn_sustain_FF_C3.opus
tune=-27
</region>

<region>
hikey=C4
hivel=127
lokey=C4
loop_end=164837
loop_mode=loop_continuous
loop_start=49336
loop_xfade=15997
lovel=0
lpc=ImkJQaVopcFSYsNBqqa7wWTBqkGkmZHBLoZwQZu2UcHF0TBBhF0BweOfuUD2jHbAgSEGQFcQCb++GDG/29uTPx24s78AKOs/MEcTwACeC0DLQre/y4mPP+IwRr9HgHU+
lpc_rms=-29.33
offset=538
release_start=180058
release_xfade=6979
sample=Horn_sustain_FF_C4.opus
tune=-17
</region>

<region>
hivel=127
key=C5
loop_end=163428
loop_mode=loop_continuous
loop_start=48914
loop_xfade=15860
lovel=0
lpc=1/qJQHYy8sAnec5AfGajwKTSn0DdS5PARoBvQOhWUMBdBSlAwKIJwISf1D/15kK/CTuAPh7+Qr1HZoM9UsPNPnXWN7/BMok/1RyPv77BND/gNoW+BJ9tPnW3KrwKxL49
lpc_rms=-27.01
release_start=182632
release_xfade=7079
sample=Horn_sustain_FF_C5.opus
tune=-21
</region>

<region>
hivel=127
key=D#3
loop_end=165690
loop_mode=loop_continuous
loop_start=49591
loop_xfade=16080
lovel=0
lpc=BhXjQLYaYcF5iFlBwYk5wUekIEGorwXB/KbMQO6dncBkXmlA4dgjwCbI8D90Cq2/HdQbP/6hID8z6bS/3431P0giD8AzJBlAo0nyvxLnxz/T5NG/BbLPPxiuO79Jyzs+
lpc_rms=-31.20
offset=594
release_start=185378
release_xfade=7186
sample=Horn_sustain_FF_D#3.opus
tune=-16
</region>

<region>
hivel=127
key=D#4
loop_end=166880
loop_mode=loop_continuous
loop_start=49947
loop_xfade=16195
lovel=0
lpc=Y76nQBkxJ8HxhSJBrc0KwbVW+EDVOOHANxi9QLR3p8AIbJtAO0GMwPC4d0Cid0/AvW0pQKA5BcD1ffE/FeOzv4BOcz+KHrG+3s0HPVzIr77Z9CA/ZtaCv8OobD/enFa+
lpc_rms=-27.71
offset=381
release_start=179142
release_xfade=6944
sample=Horn_sustain_FF_D#4.opus
tune=-31
</region>

<region>
hivel=127
key=D#5
loop_end=149885
loop_mode=loop_continuous
loop_start=44860
loop_xfade=14546
lovel=0
lpc=nauDQIIGs8AxHItAwrplwFMQaEB+lTjAXqweQChb9r+4F9w/p67kv0Xyqj+WnCi/wWzpPsrsEb4fFD88aDqmPtlW4LyPKMs+UYWwvkq1sT5mrHM9hJroPhRjV75ghbo+
lpc_rms=-25.59
release_start=158956
release_xfade=6161
sample=Horn_sustain_FF_D#5.opus
tune=-33
</region>

<region>
hivel=127
key=D3
loop_end=165133
loop_mode=loop_continuous
loop_start=49424
loop_xfade=16026
lovel=0
lpc=qkyVQCC3DsGMxwpB2tX2wMkJ3kC1EsbAb56sQGMQmcAuyHZA8wonwBvW9j8hYpK/UgQTP/0QAjyUwOO+PF5AP7PXmb+G+9k/qjDEvxTNkj+NBVi/WowqP/vCuL5KYBs+
lpc_rms=-33.42
offset=241
release_start=180456
release_xfade=6995
sample=Horn_sustain_FF_D3.opus
tune=-9
</region>

<region>
hivel=127
key=D4
loop_end=166041
loop_mode=loop_continuous
loop_start=49696
loop_xfade=16114
lovel=0
lpc=NDevQEDDJMGxCihBFN0ZwfTxDEHf9PjATK3GQNfBosC4h4hAJRpNwByLFECMZ7K/vtMnP8SNFLtoCu09hvfNPkdTUL+N2kI/wSgiv0D6Bz8hdbe91K5tPmgdD76O6yE+
lpc_rms=-29.59
offset=353
release_start=189782
release_xfade=7356
sample=Horn_sustain_FF_D4.opus
tune=-36
</region>

<region>
hivel=127
key=D5
loop_end=157034
loop_mode=loop_continuous
loop_start=47000
loop_xfade=15240
lovel=0
lpc=peTDQPGHHcHW/wVBZSbTwE6ywECDN67Ab2elQKLipMDs8ZJA+xRZwD+KE0D1Gni/gLj1PptJUTw+23e/WrQYQMNULcDPuFJADwJLwIiYG0BTC86/3WiuP+hP076GrAE/
lpc_rms=-24.25
release_start=174019
release_xfade=6745
sample=Horn_sustain_FF_D5.opus
tune=-50
</region>

<region>
hivel=127
key=E3
loop_end=167367
loop_mode=loop_continuous
loop_start=50093
loop_xfade=16242
lovel=0
lpc=406TQISeEcHrOBFB4MH8wJvv6ECvbdLAcW+uQLT6lMBzWXNA864vwP7FAUBgeKK/eTraPr5HCj97cZO/yfrGP8Bd3r+ZowBAF5EFwOVI+z8DutS/5mqcP5UHDL/felQ+
lpc_rms=-33.45
offset=146
release_start=178452
release_xfade=6917
sample=Horn_sustain_FF_E3.opus
tune=-21
</region>

<region>
hivel=127
key=E4
loop_end=159752
loop_mode=loop_continuous
loop_start=47814
loop_xfade=15503
lovel=0
lpc=WxicQJJoGcGvNh1Bnr0VwXmPB0FCluPAhD25QOgEpcCdOJFAsYFmwP1lHEB3Toy/MlwZP77wn71wlAu/nJJ/PzP0l7+O2Jg/acFEv4Jl4D6ivNG+k23tPpeB/r4ZCY8+
lpc_rms=-30.04
offset=41
release_start=174663
release_xfade=6770
sample=Horn_sustain_FF_E4.opus
tune=-23
</region>

<region>
hivel=127
key=E5
loop_end=145295
loop_mode=loop_continuous
loop_start=43486
loop_xfade=14100
lovel=0
lpc=2U+CQPPYwsA+DbpAQHaXwF37hEBkpGrAaOFVQKakP8DhWzlAFtsYwMyY9T9hg5e/LWlpPxlMQL5Gn/29MHWkPiIoX77wcBI/bwQXPv/ohr6EXMQ+u/Gcveuhdj5fLp8+
lpc_rms=-28.04
release_start=153275
release_xfade=5941
sample=Horn_sustain_FF_E5.opus
tune=-26
</region>

<region>
hivel=127
key=F#2
loop_end=162958
loop_mode=loop_continuous
loop_start=48773
loop_xfade=15814
lovel=0
lpc=mFrkQND2bsEuAHZBX/5ewbp1TEFv4DfBbHYdQf/CBsHzIdhARlukwA+6f0BFcivAc7TCP+Hgnb6Qagq/+2C5P/WJEsCdxjJA4Q8mwHDxBEBkmLa/8BxBPxNXs77GVGA+
lpc_rms=-34.37
offset=585
release_start=176089
release_xfade=6826
sample=Horn_sustain_FF_F#2.opus
tune=-11
</region>

<region>
hivel=127
key=F#3
loop_end=168566
loop_mode=loop_continuous
loop_start=50451
loop_xfade=16359
lovel=0
lpc=0HK4QGJYQcGtqUxBOWM8wcFeLEH4pxXBG1bwQOMLrcAgBn5A3oJQwHSZJEASl7K/oIv1PpXgVT/F4ADAl/4lQJcENcB0si9A+fcQwHeq1j9v8aO/rUiiP9sSdr8IYAk/
lpc_rms=-34.75
offset=584
release_start=190583
release_xfade=7387
sample=Horn_sustain_FF_F#3.opus
tune=-18
</region>

<region>
hivel=127
key=F#4
loop_end=160781
loop_mode=loop_continuous
loop_start=48121
loop_xfade=15603
lovel=0
lpc=y1//QOytgsGWE39BK0lbwdq8SUGsNzvBf+giQYOoG8Gm7RRBsPn3wCG6yUBiJ5jAPTpBQBjMF8CgoU9AQo5CwE7mxj8fe72+kuB7vyMTAEDIEQjAMfTrP9v6/b66Q2G9
lpc_rms=-25.30
offset=35
release_start=177399
release_xfade=6876
sample=Horn_sustain_FF_F#4.opus
tune=-24
</region>

<region>
hikey=F2
hivel=127
lokey=F1
loop_end=163777
loop_mode=loop_continuous
loop_start=49018
loop_xfade=15894
lovel=0
lpc=oa2jQHEULMF5FjdBESMqwdoZH0H+iQzBTv7gQMIes8DN3ItAZdBIwIZ2+z+TNV+/i1ATPCH0Xz+CQqy/JWG+PzlZ4L8q0gpAti4GwHBJ1z+iMY6/ZCobP5HJr74Lw0Q+
lpc_rms=-38.43
offset=600
pitch_keycenter=F2
release_start=176783
release_xfade=6852
sample=Horn_sustain_FF_F2.opus
tune=-31
</region>

<region>
hivel=127
key=F3
loop_end=169115
loop_mode=loop_continuous
loop_start=50616
loop_xfade=16412
lovel=0
lpc=l+TqQHFxgsHY5I1BQxGCwYQAbEFq3kzBCsghQdAmBcG7ZO9AyWTLwFGWnkA2UFzA8nELQDTPOL+BGyA+n9DePoUbhL97bss/LloNwL6ZEUAmaBDA9inFPwyQL7+ezbA+
lpc_rms=-30.74
offset=683
release_start=183730
release_xfade=7122
sample=Horn_sustain_FF_F3.opus
tune=-8
</region>

<region>
hivel=127
key=F4
loop_end=164673
loop_mode=loop_continuous
loop_start=49286
loop_xfade=15981
lovel=0
lpc=XSsbQffTrcH2kb1B60W2wRbsskFhgK3BerqmQUcFlMGIj29BwkdUwfMJMkHAp/rApduqQGz7PsBqufQ/Ig2EvB+dLsAXZJVA2ouwwFh9o0AqomHAn6vsP15gO78z/hY+
lpc_rms=-26.37
offset=297
release_start=188661
release_xfade=7313
sample=Horn_sustain_FF_F4.opus
tune=-18
</region>

<region>
hikey=A#5
hivel=127
lokey=F5
loop_end=134221
loop_mode=loop_continuous
loop_start=40172
loop_xfade=13026
lovel=0
lpc=RdCUQGhp3cCXC8lAB5OowAssokAQHoHAdBh9QCHbecCoUW9APuBSwBFiS0BbICzA0G0UQNWlnb9XLJE/Y8TnvvfMMT7Lqra+OYCUP0nPu77KPxU/NS96vcOJzb7rbUE/
lpc_rms=-26.67
offset=71
pitch_keycenter=F5
release_start=138959
release_xfade=5386
sample=Horn_sustain_FF_F5.opus
tune=-34
</region>

<region>
hivel=127
key=G#2
loop_end=157431
loop_mode=loop_continuous
loop_start=47119
loop_xfade=15278
lovel=0
lpc=4oe2QDRAN8FbMjRB2ggbwb7aB0E5APDA1wDRQBw8ucCeU6JA6RiDwIlZV0AW+yzATUrsP2e+Sr8uwMo+0ad/PFafMb9OQ6o/Qi2/v9srrj+724S/Dhs6Pxxmsr4ChCk+
lpc_rms=-33.41
offset=475
release_start=166316
release_xfade=6447
sample=Horn_sustain_FF_G#2.opus
tune=-13
</region>

<region>
hivel=127
key=G#3
loop_end=166811
loop_mode=loop_continuous
loop_start=49926
loop_xfade=16188
lovel=0
lpc=CavaQG8lYMGSIWJBT6BPwUOESUEayjnBe18aQTDO9MAwILtAl/GDwAwfOEACdri/RlfBPkCbUz4ae8+9ctxCPllKK7/lqJ8/QgmZv2xhfT8P5d6+vVaAPg2jCr+8pb4+
lpc_rms=-28.74
offset=240
release_start=182696
release_xfade=7082
sample=Horn_sustain_FF_G#3.opus
tune=-11
</region>

<region>
hivel=127
key=G#4
loop_end=160053
loop_mode=loop_continuous
loop_start=47904
loop_xfade=15532
lovel=0
lpc=BwlSQCNLtcCW2KlAmqSXwBXvhkBHd2PAc9Y0QCw+HcDKwgBAhLfIv+E9hj/NxyO+uuMHvl+mUD4Wc7G9ggOKPg6uMb9QIxc/cKouvxamSD/lZQ+/7BYmP7/qKr+dhP0+
lpc_rms=-29.47
release_start=180768
release_xfade=7007
sample=Horn_sustain_FF_G#4.opus
tune=-16
</region>

<region>
hivel=127
key=G2
loop_end=157696
loop_mode=loop_continuous
loop_start=47198
loop_xfade=15304
lovel=0
lpc=lxjXQNuqeMEzDZFBHMCMwV5+h0HRc3/Bs2phQeslQMHMwB9BS0YEwaZ44ECRTbDAhl14QFfVD8Bk1nQ/dSHVPozxy7+5LBhAN9AmwHOuF0Cy7u2/knmMP30clb55PC89
lpc_rms=-36.86
offset=512
release_start=166779
release_xfade=6465
sample=Horn_sustain_FF_G2.opus
tune=-21
</region>

<region>
hivel=127
key=G3
loop_end=160347
loop_mode=loop_continuous
loop_start=47992
loop_xfade=15561
lovel=0
lpc=6qkXQcBlvsGJ3O9BxKPuwQT24UEi7s3BkfawQS+bl8Ee23VB4Fk/wRmdG0ENh/bAkdiyQDBuT8C8hZA/W71jP4dUGsC0W1dAwhlWwGmxLECLoOa/K3+fP57id787Lv0+
lpc_rms=-33.22
offset=293
release_start=172987
release_xfade=6705
sample=Horn_sustain_FF_G3.opus
tune=-19
</region>

<region>
hivel=127
key=G4
loop_end=163812
loop_mode=loop_continuous
loop_start=49029
loop_xfade=15897
lovel=0
lpc=1bSFQCv58MCNbtdAbGi/wDd0rkAje5rAsCiFQHRIUcCrOS9A9rgewM1ECEDvH8e/jeVNP3MUx73rXNi+A26NP5Dqyb+jSus/QAL0v4pNtT/z/Sq/dAEKP5SCEL+ribU+
lpc_rms=-28.19
release_start=178901
release_xfade=6935
sample=Horn_sustain_FF_G4.opus
tune=-24
</region>
</group>